<?xml version="1.0" encoding="UTF-8" standalone="no"?><!DOCTYPE svg PUBLIC "-//W3C//DTD SVG 1.1//EN" "http://www.w3.org/Graphics/SVG/1.1/DTD/svg11.dtd"><svg width="100%" height="100%" viewBox="0 0 21 21" version="1.1" xmlns="http://www.w3.org/2000/svg" xmlns:xlink="http://www.w3.org/1999/xlink" xml:space="preserve" xmlns:serif="http://www.serif.com/" style="fill-rule:evenodd;clip-rule:evenodd;stroke-linecap:round;stroke-linejoin:round;stroke-miterlimit:1.5;"><rect id="accounts" x="0.153" y="0.486" width="20" height="20" style="fill:none;"/><clipPath id="_clip1"><rect id="accounts1" serif:id="accounts" x="0.153" y="0.486" width="20" height="20"/></clipPath><g clip-path="url(#_clip1)"><circle cx="7.319" cy="4.705" r="4.21" style="fill:#c400ff;"/><path d="M13.985,15.986c0,-3.679 -2.987,-6.666 -6.666,-6.666c-3.679,0 -6.666,2.987 -6.666,6.666c1.556,-1.103 4.007,-1.999 6.666,-1.999c2.659,-0 5.111,0.896 6.666,1.999Z" style="fill:#c400ff;"/><g><path d="M19.735,20.486c0,-3.334 -2.707,-6.041 -6.041,-6.041c-3.334,0 -6.041,2.707 -6.041,6.041c1.41,-1 3.631,-1.812 6.041,-1.812c2.41,0 4.632,0.812 6.041,1.812Z" style="fill:none;stroke:#fff;stroke-width:0.95px;"/><path d="M19.735,20.486c0,-3.334 -2.707,-6.041 -6.041,-6.041c-3.334,0 -6.041,2.707 -6.041,6.041c1.41,-1 3.631,-1.812 6.041,-1.812c2.41,0 4.632,0.812 6.041,1.812Z" style="fill:#ff00bf;"/><circle cx="13.694" cy="10.263" r="3.815" style="fill:none;stroke:#fff;stroke-width:0.95px;"/><circle cx="13.694" cy="10.263" r="3.815" style="fill:#ff00bf;"/></g><g><path d="M19.735,20.486c0,-3.334 -2.707,-6.041 -6.041,-6.041c-3.334,0 -6.041,2.707 -6.041,6.041c1.41,-1 3.631,-1.812 6.041,-1.812c2.41,0 4.632,0.812 6.041,1.812Z" style="fill:#ff00bf;"/><circle cx="13.694" cy="10.263" r="3.815" style="fill:#ff00bf;"/></g></g></svg>