<?xml version="1.0" encoding="UTF-8" standalone="no"?><!DOCTYPE svg PUBLIC "-//W3C//DTD SVG 1.1//EN" "http://www.w3.org/Graphics/SVG/1.1/DTD/svg11.dtd"><svg width="100%" height="100%" viewBox="0 0 22 23" version="1.1" xmlns="http://www.w3.org/2000/svg" xmlns:xlink="http://www.w3.org/1999/xlink" xml:space="preserve" xmlns:serif="http://www.serif.com/" style="fill-rule:evenodd;clip-rule:evenodd;stroke-linejoin:round;stroke-miterlimit:2;"><rect id="save" x="0.143" y="0.957" width="21.651" height="21.628" style="fill:none;"/><g id="save1" serif:id="save"><ellipse cx="10.976" cy="11.767" rx="10.25" ry="10.522" style="fill:#00a00a;"/><clipPath id="_clip1"><ellipse cx="10.976" cy="11.767" rx="10.25" ry="10.522"/></clipPath><g clip-path="url(#_clip1)"><path d="M10.454,15.129c0.059,-0.137 0.128,-0.31 0.178,-0.474c0.29,-0.952 0.582,-2.439 0.875,-3.926c0.411,-2.084 0.839,-4.163 1.243,-4.914c0.235,-0.437 0.55,-0.579 0.783,-0.579c0.433,-0 0.875,0.325 1.163,1.046c0.418,1.044 0.642,3.089 0.829,5.134c0.152,1.668 0.285,3.335 0.512,4.397c0.033,0.158 0.085,0.323 0.134,0.46c0.033,-0.061 0.065,-0.125 0.09,-0.186c0.184,-0.449 0.347,-1.045 0.539,-1.639c0.261,-0.81 0.581,-1.611 1.022,-2.128c0.378,-0.443 0.841,-0.703 1.408,-0.703l2.355,0c0.005,0 0.01,0 0.015,0c0.024,0 0.048,0.001 0.07,0.002c1.032,0.057 0.537,1.148 -0.067,1.152c-0,0 -0.003,0 -0.003,0l-2.37,0c-0.398,0 -0.636,0.343 -0.853,0.751c-0.31,0.583 -0.526,1.336 -0.733,2.005c-0.232,0.748 -0.473,1.401 -0.757,1.738c-0.224,0.266 -0.484,0.395 -0.763,0.404c-0.334,0.011 -0.71,-0.206 -0.949,-0.79c-0.281,-0.691 -0.465,-2.091 -0.617,-3.681c-0.213,-2.232 -0.38,-4.862 -0.817,-6.238c-0.037,-0.116 -0.075,-0.221 -0.115,-0.314c-0.05,0.119 -0.101,0.255 -0.141,0.386c-0.291,0.951 -0.582,2.439 -0.876,3.926c-0.411,2.084 -0.839,4.163 -1.242,4.913c-0.236,0.437 -0.551,0.58 -0.783,0.58c-0.38,-0 -0.752,-0.215 -1.058,-0.67c-0.441,-0.657 -0.792,-1.94 -1.097,-3.229c-0.238,-1.009 -0.455,-2.019 -0.701,-2.665c-0.01,-0.024 -0.02,-0.049 -0.031,-0.075c-0.054,0.257 -0.09,0.559 -0.139,0.86c-0.181,1.096 -0.598,2.099 -1.82,2.099l-4.498,0c-0.31,0 -2.562,-0.258 -2.562,-0.577c-0,-0.318 0.252,-0.577 0.562,-0.577l6.498,0c0.355,0 0.491,-0.262 0.582,-0.555c0.103,-0.331 0.149,-0.71 0.201,-1.054c0.071,-0.466 0.167,-0.878 0.329,-1.139c0.195,-0.315 0.467,-0.489 0.843,-0.489c0.277,0 0.581,0.152 0.823,0.542c0.274,0.443 0.525,1.326 0.765,2.332c0.278,1.165 0.557,2.504 0.924,3.389c0.079,0.189 0.16,0.355 0.249,0.486Z" style="fill:#fff;"/></g></g></svg>